<svg width="60" height="60" viewBox="0 0 60 60" fill="none" xmlns="http://www.w3.org/2000/svg">
<g clip-path="url(#clip0_60_912)">
<path d="M41.25 15C43.5457 14.9997 45.7496 15.9016 47.3865 17.5113C49.0233 19.1211 49.962 21.3096 50 23.605C50.225 25.7675 50.1925 28.9575 48.73 32.64C47.235 36.405 44.32 40.51 39 44.5C38.7374 44.697 38.4385 44.8403 38.1205 44.9218C37.8024 45.0033 37.4715 45.0213 37.1465 44.9749C36.4901 44.8811 35.8978 44.5304 35.5 44C35.1022 43.4696 34.9314 42.8028 35.0251 42.1464C35.1189 41.4901 35.4696 40.8978 36 40.5C39.91 37.5675 42.15 34.7175 43.4325 32.225C42.2301 32.5338 40.9758 32.5832 39.7528 32.3699C38.5298 32.1566 37.3663 31.6855 36.3394 30.988C35.3125 30.2904 34.4457 29.3823 33.7968 28.324C33.1479 27.2657 32.7315 26.0815 32.5755 24.8499C32.4194 23.6183 32.5272 22.3676 32.8917 21.1809C33.2562 19.9942 33.8691 18.8987 34.6895 17.967C35.51 17.0354 36.5193 16.289 37.6504 15.7774C38.7816 15.2659 40.0086 15.0009 41.25 15ZM18.75 15C21.0457 14.9997 23.2496 15.9016 24.8865 17.5113C26.5233 19.1211 27.462 21.3096 27.5 23.605C27.725 25.7675 27.6925 28.9575 26.23 32.64C24.7375 36.405 21.82 40.51 16.5 44.5C16.2374 44.697 15.9385 44.8403 15.6205 44.9218C15.3024 45.0033 14.9715 45.0213 14.6464 44.9749C13.9901 44.8811 13.3978 44.5304 13 44C12.6022 43.4696 12.4314 42.8028 12.5251 42.1464C12.6189 41.4901 12.9696 40.8978 13.5 40.5C17.41 37.5675 19.65 34.7175 20.9325 32.225C19.7301 32.5338 18.4758 32.5832 17.2528 32.3699C16.0298 32.1566 14.8663 31.6855 13.8394 30.988C12.8125 30.2904 11.9457 29.3823 11.2968 28.324C10.6478 27.2657 10.2315 26.0815 10.0755 24.8499C9.91943 23.6183 10.0272 22.3676 10.3917 21.1809C10.7562 19.9942 11.3691 18.8987 12.1895 17.967C13.01 17.0354 14.0193 16.289 15.1504 15.7774C16.2816 15.2659 17.5086 15.0009 18.75 15Z" fill="#333333"/>
</g>
<defs>
<clipPath id="clip0_60_912">
<rect width="60" height="60" fill="white"/>
</clipPath>
</defs>
</svg>
